<svg width="21" height="21" viewBox="0 0 21 21" fill="none" xmlns="http://www.w3.org/2000/svg">
<path d="M10 4.5H5.5C4.96957 4.5 4.46086 4.71071 4.08579 5.08579C3.71071 5.46086 3.5 5.96957 3.5 6.5V15.5C3.5 16.0304 3.71071 16.5391 4.08579 16.9142C4.46086 17.2893 4.96957 17.5 5.5 17.5H15.5C16.0304 17.5 16.5391 17.2893 16.9142 16.9142C17.2893 16.5391 17.5 16.0304 17.5 15.5V11" stroke="black" stroke-linecap="round" stroke-linejoin="round"/>
<path d="M15.5 5.5L16.453 6.5M17.5 3.467C17.7671 3.74241 17.915 4.11186 17.9118 4.49548C17.9086 4.8791 17.7546 5.24606 17.483 5.517L10.5 12.5L7.5 13.5L8.5 10.5L15.487 3.454C15.7327 3.20668 16.0614 3.05918 16.4095 3.03997C16.7576 3.02076 17.1005 3.13121 17.372 3.35L17.5 3.467Z" stroke="black" stroke-linecap="round" stroke-linejoin="round"/>
</svg>
