<svg width="25" height="23" viewBox="0 0 25 23" fill="none" xmlns="http://www.w3.org/2000/svg">
<path d="M10.0285 12.4583H18.9402L16.1125 8.95658L13.5965 11.9054L11.9684 10.0999L10.0285 12.4583ZM4.03478 18.9463C3.57545 18.9463 3.18448 18.7952 2.86186 18.493C2.53924 18.1914 2.37793 17.8263 2.37793 17.3976V6.78213H3.40321V17.3976C3.40321 17.5694 3.46233 17.7106 3.58058 17.8212C3.69883 17.9317 3.85023 17.987 4.03478 17.987H19.8076V18.9453L4.03478 18.9463ZM7.1106 16.0713C6.65128 16.0713 6.26031 15.9202 5.93769 15.618C5.61507 15.3164 5.45376 14.9513 5.45376 14.5226V4.42367C5.45376 3.99433 5.61507 3.62889 5.93769 3.32733C6.26031 3.02578 6.65128 2.875 7.1106 2.875H12.197L14.2475 4.79167H21.2276C21.6856 4.79167 22.0762 4.94244 22.3995 5.244C22.7221 5.54556 22.8834 5.911 22.8834 6.34033V14.5226C22.8834 14.9513 22.7221 15.3164 22.3995 15.618C22.0769 15.9195 21.6859 16.0703 21.2266 16.0703L7.1106 16.0713ZM7.1106 15.1129H21.2276C21.4115 15.1129 21.5625 15.0573 21.6808 14.9462C21.799 14.8356 21.8582 14.6944 21.8582 14.5226V6.34033C21.8582 6.16783 21.799 6.02632 21.6808 5.91579C21.5625 5.80526 21.4115 5.75 21.2276 5.75H13.8354L11.7848 3.83333H7.10958C6.92571 3.83333 6.77465 3.8886 6.6564 3.99912C6.53816 4.10965 6.47903 4.25117 6.47903 4.42367V14.5226C6.47903 14.6944 6.53816 14.8356 6.6564 14.9462C6.77465 15.0567 6.92605 15.112 7.1106 15.112" fill="#626262"/>
</svg>
