<svg width="24" height="23" viewBox="0 0 24 23" fill="none" xmlns="http://www.w3.org/2000/svg">
<path d="M8.0026 4.80217C7.95906 4.70956 7.89007 4.63126 7.80368 4.57641C7.71729 4.52156 7.61708 4.49243 7.51475 4.49243C7.41242 4.49243 7.3122 4.52156 7.22581 4.57641C7.13942 4.63126 7.07043 4.70956 7.02689 4.80217L1.27689 17.0209C1.21601 17.1503 1.20902 17.2986 1.25747 17.4331C1.30591 17.5677 1.40581 17.6774 1.53519 17.7383C1.66458 17.7992 1.81285 17.8062 1.94739 17.7578C2.08193 17.7093 2.19172 17.6094 2.2526 17.48L3.79791 14.1953H11.2316L12.7769 17.4791C12.807 17.5432 12.8495 17.6007 12.9019 17.6483C12.9542 17.696 13.0155 17.7329 13.0821 17.7569C13.1487 17.7808 13.2194 17.7915 13.2901 17.7881C13.3609 17.7848 13.4302 17.7676 13.4943 17.7374C13.5584 17.7073 13.6159 17.6648 13.6635 17.6124C13.7112 17.5601 13.748 17.4988 13.772 17.4322C13.796 17.3656 13.8066 17.2949 13.8033 17.2242C13.8 17.1535 13.7827 17.0841 13.7526 17.02L8.0026 4.80217ZM4.30553 13.1172L7.51475 6.29717L10.724 13.1172H4.30553ZM18.296 8.80471C17.199 8.80471 16.3455 9.0994 15.7597 9.67979C15.7094 9.7297 15.6695 9.78901 15.6422 9.85436C15.6148 9.9197 15.6006 9.98979 15.6004 10.0606C15.6001 10.1314 15.6138 10.2016 15.6407 10.2672C15.6676 10.3327 15.7071 10.3923 15.757 10.4426C15.8578 10.5441 15.9948 10.6014 16.1378 10.6019C16.2087 10.6021 16.2789 10.5884 16.3444 10.5616C16.4099 10.5347 16.4695 10.4952 16.5198 10.4453C16.8953 10.0724 17.4937 9.88283 18.296 9.88283C19.5844 9.88283 20.6319 10.7696 20.6319 11.8594V12.5099C19.975 11.9673 19.148 11.6734 18.296 11.6797C16.4138 11.6797 14.8819 13.0498 14.8819 14.7344C14.8819 16.419 16.4138 17.7891 18.296 17.7891C19.148 17.7954 19.975 17.5015 20.6319 16.9589V17.25C20.6319 17.393 20.6887 17.5301 20.7898 17.6312C20.8909 17.7323 21.028 17.7891 21.171 17.7891C21.314 17.7891 21.4511 17.7323 21.5522 17.6312C21.6533 17.5301 21.7101 17.393 21.7101 17.25V11.8594C21.7101 10.1748 20.1827 8.80471 18.296 8.80471ZM18.296 16.711C17.0076 16.711 15.9601 15.8242 15.9601 14.7344C15.9601 13.6446 17.0076 12.7578 18.296 12.7578C19.5844 12.7578 20.6319 13.6446 20.6319 14.7344C20.6319 15.8242 19.5844 16.711 18.296 16.711Z" fill="#626262"/>
</svg>
