<?xml version="1.0" standalone="no"?>
<!DOCTYPE svg PUBLIC "-//W3C//DTD SVG 20010904//EN"
 "http://www.w3.org/TR/2001/REC-SVG-20010904/DTD/svg10.dtd">
<svg version="1.0" xmlns="http://www.w3.org/2000/svg"
 width="706.000000pt" height="614.000000pt" viewBox="0 0 706.000000 614.000000"
 preserveAspectRatio="xMidYMid meet">

<g transform="translate(0.000000,614.000000) scale(0.100000,-0.100000)"
fill="#000000" stroke="none">
<path d="M2012 5705 c-77 -24 -142 -83 -188 -171 -54 -104 -69 -178 -68 -344
1 -249 59 -474 181 -696 212 -389 587 -663 1048 -764 50 -10 151 -25 225 -31
116 -10 150 -10 243 4 365 55 619 253 726 566 123 358 -86 724 -445 781 -209
34 -420 -74 -508 -260 -27 -57 -31 -76 -31 -150 0 -76 4 -93 33 -152 62 -127
171 -195 327 -205 66 -4 90 -1 140 17 81 30 165 114 186 185 55 190 -69 359
-262 357 -145 -1 -256 -98 -275 -243 -7 -51 -8 -52 -16 -24 -31 107 46 246
169 303 49 22 71 26 143 26 121 -1 185 -27 271 -113 84 -84 109 -150 109 -285
-1 -177 -86 -331 -243 -438 -130 -88 -363 -129 -556 -97 -308 50 -570 294
-701 654 -55 152 -77 262 -90 455 -19 279 -31 340 -88 458 -41 84 -92 132
-172 163 -58 22 -98 23 -158 4z"/>
<path d="M4061 5588 c-55 -58 -31 -160 99 -423 134 -271 169 -369 184 -520 13
-119 17 -135 42 -152 22 -14 26 -14 49 1 64 42 108 223 108 446 1 165 -13 238
-67 353 -41 90 -115 190 -133 182 -8 -2 -12 -1 -9 3 8 14 -65 78 -121 106 -66
33 -124 34 -152 4z"/>
<path d="M5375 4550 c-400 -42 -762 -212 -1017 -478 -191 -200 -317 -438 -384
-727 -15 -63 -19 -119 -18 -265 0 -172 2 -191 27 -273 47 -153 113 -262 218
-363 79 -74 138 -115 232 -159 120 -57 184 -70 342 -69 124 0 148 3 212 26
225 80 365 253 380 468 16 227 -142 429 -365 470 -169 30 -339 -55 -414 -208
-19 -40 -23 -63 -23 -147 0 -115 16 -156 86 -226 138 -138 384 -104 471 65 34
65 31 166 -6 233 -45 82 -146 142 -240 144 -57 1 -18 17 44 18 100 2 183 -43
244 -131 51 -75 65 -153 43 -242 -43 -175 -181 -282 -379 -293 -168 -11 -307
44 -434 171 -110 111 -159 229 -170 416 -21 353 199 646 611 815 167 69 350
105 640 125 275 19 408 56 498 140 115 105 115 253 0 365 -45 44 -139 90 -224
109 -81 19 -270 27 -374 16z"/>
<path d="M1255 4264 c-197 -19 -345 -76 -462 -178 -57 -50 -120 -135 -138
-187 -26 -71 16 -119 103 -119 77 0 182 37 447 158 183 83 310 122 453 138
150 17 172 24 172 58 0 52 -60 81 -228 111 -87 15 -278 26 -347 19z"/>
<path d="M1710 3941 c-64 -13 -177 -57 -231 -91 -60 -39 -161 -144 -186 -195
-75 -148 -77 -308 -8 -445 61 -120 212 -223 345 -236 220 -21 412 147 414 361
2 130 -81 252 -198 292 -161 55 -337 -24 -381 -170 -19 -63 -19 -81 1 -146 29
-98 129 -177 241 -188 71 -8 49 -23 -33 -23 -78 0 -148 34 -208 101 -53 59
-76 121 -76 205 0 96 31 166 104 239 97 97 194 131 346 122 143 -8 262 -62
368 -167 71 -71 97 -113 135 -219 30 -82 32 -92 32 -241 -1 -151 -1 -157 -34
-242 -90 -239 -285 -418 -588 -539 -171 -68 -286 -91 -573 -114 -355 -27 -484
-64 -569 -160 -79 -90 -93 -182 -41 -270 42 -71 59 -89 115 -123 124 -75 300
-103 527 -83 400 34 757 198 1027 470 185 186 334 469 392 743 30 139 32 357
6 473 -46 198 -152 364 -309 483 -87 65 -136 91 -258 132 -79 27 -113 33 -205
36 -60 1 -130 -1 -155 -5z"/>
<path d="M2905 3427 c-102 -34 -165 -94 -190 -181 -26 -88 0 -97 46 -17 71
123 256 150 332 50 56 -75 56 -162 1 -228 -25 -31 -108 -75 -128 -68 -6 2 -9
40 -7 99 3 100 -10 171 -36 201 -19 20 -30 22 -30 4 0 -15 -44 -307 -49 -324
-2 -7 -17 -13 -34 -13 -39 0 -38 -13 2 -25 37 -12 45 -25 53 -86 12 -96 57
-103 69 -11 11 78 12 79 74 91 32 6 83 26 112 44 162 96 148 361 -23 448 -50
26 -139 33 -192 16z"/>
<path d="M3551 3421 c-65 -23 -96 -45 -138 -99 -32 -42 -58 -130 -44 -145 5
-5 17 4 27 19 42 61 109 122 149 133 52 14 120 14 148 0 104 -53 134 -192 61
-278 -25 -30 -108 -75 -127 -68 -4 1 -9 59 -10 129 -2 111 -5 130 -23 154 -23
31 -41 41 -41 22 0 -7 -8 -65 -18 -128 -10 -63 -21 -135 -24 -160 -6 -42 -8
-45 -38 -48 -42 -4 -42 -15 -1 -27 37 -12 45 -24 53 -85 3 -25 13 -54 21 -65
15 -19 16 -19 29 -2 7 11 16 38 20 60 11 73 12 74 73 86 88 17 159 65 196 131
26 47 30 64 30 125 -1 80 -17 124 -65 180 -69 78 -171 103 -278 66z"/>
<path d="M3120 2451 c-299 -55 -521 -207 -642 -439 -69 -131 -82 -185 -83
-332 0 -132 9 -170 60 -272 93 -185 275 -299 480 -301 199 -2 358 89 437 251
44 90 51 197 17 287 -30 82 -120 172 -204 205 -83 33 -228 35 -296 4 -106 -49
-169 -136 -177 -243 -8 -121 39 -210 139 -260 158 -79 347 -7 393 150 9 29 16
63 16 76 0 14 4 21 10 18 6 -3 10 -32 10 -63 -1 -166 -163 -295 -350 -279
-202 17 -350 185 -350 397 0 137 56 264 163 371 87 87 174 131 314 159 339 68
635 -45 850 -324 162 -210 242 -447 269 -800 23 -310 52 -419 134 -509 57 -62
126 -99 196 -105 103 -9 225 75 280 193 46 98 58 169 58 330 0 232 -41 417
-138 620 -80 169 -155 273 -296 416 -211 214 -432 337 -742 415 -133 33 -156
36 -323 39 -99 2 -200 0 -225 -4z"/>
<path d="M5750 2365 c-58 -14 -232 -85 -332 -136 -151 -76 -397 -149 -503
-149 -64 0 -134 -20 -140 -40 -17 -53 52 -94 201 -121 294 -53 549 -26 725 78
138 80 272 248 255 318 -15 58 -94 77 -206 50z"/>
<path d="M2173 1669 c-63 -23 -113 -222 -113 -454 0 -247 65 -413 214 -553 67
-62 110 -89 178 -111 75 -24 127 34 114 128 -10 76 -38 146 -131 332 -100 197
-159 366 -175 495 -19 156 -33 183 -87 163z"/>
</g>
</svg>
